<svg height="512pt" viewBox="0 0 512.00062 512" width="512pt" xmlns="http://www.w3.org/2000/svg"><path d="m414.011719 212.007812c0 111.5625-90.441407 202.003907-202.003907 202.003907-111.566406 0-202.007812-90.441407-202.007812-202.003907 0-111.566406 90.441406-202.007812 202.007812-202.007812 111.5625 0 202.003907 90.441406 202.003907 202.007812zm0 0" fill="#c9f3ff"/><path d="m86.875 321.417969h-44.703125c16.53125 25.601562 38.6875 47.226562 64.726563 63.125v-43.105469c0-11.058594-8.964844-20.019531-20.023438-20.019531zm0 0" fill="#a0e557"/><path d="m338.253906 54.320312h-68.5c-26.050781 0-47.171875 21.117188-47.171875 47.171876 0 9.675781-7.84375 17.519531-17.519531 17.519531-17.121094 0-31 13.878906-31 30.996093 0 20.84375 16.898438 37.738282 37.738281 37.738282h200.757813c-6.445313-53.84375-34.070313-101.171875-74.304688-133.425782zm0 0" fill="#a0e557"/><path d="m19.207031 151.554688h75.542969c12.863281 0 23.289062-10.425782 23.289062-23.289063v-.957031c0-12.859375 10.425782-23.285156 23.285157-23.285156 12.863281 0 23.289062-10.425782 23.289062-23.289063v-5.09375c0-12.863281-10.425781-23.289063-23.289062-23.289063h-53.078125c-32.164063 24.972657-56.585938 59.4375-69.039063 99.203126zm0 0" fill="#d8fb93"/><path d="m230.15625 187.746094h-92.78125c-22.742188 0-41.179688 18.4375-41.179688 41.175781v13.222656c0 20.859375 16.910157 37.769531 37.769532 37.769531 16.003906 0 28.976562 12.972657 28.976562 28.976563v51.855469c0 18.609375 22.933594 27.4375 35.414063 13.632812 4.921875-5.449218 11.921875-8.558594 19.265625-8.558594 14.339844 0 25.964844-11.625 25.964844-25.96875v-37.554687c0-9.984375 8.09375-18.078125 18.078124-18.078125h8.34375c9.984376 0 18.078126-8.09375 18.078126-18.074219v-20.46875c0-9.984375-8.09375-18.078125-18.078126-18.078125-9.984374 0-18.078124-8.09375-18.078124-18.078125 0-12.023437-9.75-21.773437-21.773438-21.773437zm0 0" fill="#d8fb93"/><path d="m378.105469 411.917969 83.09375 83.09375c9.335937 9.339843 24.476562 9.339843 33.8125 0 9.339843-9.335938 9.339843-24.476563 0-33.8125l-83.09375-83.09375zm0 0" fill="#ff5d5d"/><path d="m430.019531 310.011719c0 66.273437-53.730469 120.003906-120.003906 120.003906-66.277344 0-120.003906-53.730469-120.003906-120.003906 0-66.277344 53.726562-120.003907 120.003906-120.003907 66.273437 0 120.003906 53.726563 120.003906 120.003907zm0 0" fill="#fff"/><path d="m388.015625 310.011719c0 43.078125-34.921875 78-78 78-43.082031 0-78.003906-34.921875-78.003906-78 0-43.082031 34.921875-78.003907 78.003906-78.003907 43.078125 0 78 34.921876 78 78.003907zm0 0" fill="#72d8ff"/><path d="m303 130.632812c-2.628906 0-5.210938 1.070313-7.070312 2.933594-1.871094 1.859375-2.929688 4.4375-2.929688 7.066406 0 2.632813 1.058594 5.210938 2.929688 7.070313 1.859374 1.859375 4.441406 2.933594 7.070312 2.933594s5.210938-1.070313 7.070312-2.933594c1.859376-1.859375 2.929688-4.4375 2.929688-7.070313 0-2.628906-1.070312-5.207031-2.929688-7.066406-1.859374-1.863281-4.441406-2.933594-7.070312-2.933594zm0 0"/><path d="m310.015625 222.007812c-48.527344 0-88.003906 39.476563-88.003906 88.003907 0 48.523437 39.476562 88 88.003906 88 48.523437 0 88-39.476563 88-88 0-48.527344-39.476563-88.003907-88-88.003907zm0 156.003907c-37.5 0-68.003906-30.503907-68.003906-68 0-37.496094 30.503906-68.003907 68.003906-68.003907 37.496094 0 68 30.507813 68 68.003907 0 37.496093-30.503906 68-68 68zm0 0"/><path d="m502.085938 454.128906-79.371094-79.367187c11.003906-19.078125 17.304687-41.191407 17.304687-64.75 0-24.285157-6.699219-47.03125-18.339843-66.5 1.542968-10.375 2.332031-20.953125 2.332031-31.503907 0-116.902343-95.105469-212.007812-212.003907-212.007812-116.902343 0-212.007812 95.105469-212.007812 212.007812 0 41.820313 12.175781 80.847657 33.164062 113.734376.378907.789062.855469 1.523437 1.421876 2.179687 37.902343 57.820313 103.269531 96.089844 177.421874 96.089844 10.550782 0 21.140626-.792969 31.507813-2.335938 19.46875 11.640625 42.214844 18.339844 66.5 18.339844 23.554687 0 45.667969-6.300781 64.742187-17.300781l79.371094 79.371094c6.609375 6.609374 15.292969 9.914062 23.976563 9.914062 8.683593 0 17.367187-3.308594 23.976562-9.914062 13.222657-13.222657 13.222657-34.734376.003907-47.957032zm-126.582032-256.382812h27.980469c.34375 4.710937.527344 9.464844.527344 14.261718 0 2.703126-.058594 5.410157-.167969 8.109376-8.339844-8.699219-17.878906-16.242188-28.339844-22.371094zm-182.757812 168.359375c-.648438.441406-1.261719.957031-1.8125 1.5625-4.410156 4.882812-9.820313 3.3125-11.375 2.714843-1.550782-.597656-6.617188-3.058593-6.617188-9.640624v-51.855469c0-21.488281-17.484375-38.972657-38.976562-38.972657-15.3125 0-27.769532-12.457031-27.769532-27.769531v-13.226562c0-17.1875 13.988282-31.175781 31.175782-31.175781h107.152344c-38.558594 22.585937-64.515626 64.449218-64.515626 112.269531 0 20.074219 4.578126 39.101562 12.738282 56.09375zm193.144531-235.472657h-47.933594c-5.523437 0-10 4.480469-10 10 0 5.523438 4.476563 10 10 10h55.996094c2.96875 8.773438 5.316406 17.828126 6.996094 27.113282h-189.148438c-15.292969 0-27.734375-12.445313-27.734375-27.738282 0-11.578124 9.417969-20.996093 20.996094-20.996093 15.175781 0 27.523438-12.347657 27.523438-27.523438 0-20.496093 16.671874-37.171875 37.167968-37.171875h64.8125c21.617188 17.976563 39.238282 40.597656 51.324219 66.316406zm-294.027344-68.28125h49.460938c7.328125 0 13.289062 5.960938 13.289062 13.289063v5.09375c0 7.328125-5.960937 13.289063-13.289062 13.289063-18.351563 0-33.285157 14.933593-33.285157 33.285156v.957031c0 7.328125-5.960937 13.289063-13.289062 13.289063h-61.359375c12.359375-31.234376 32.699219-58.464844 58.472656-79.203126zm-30.101562 269.066407h25.113281c5.527344 0 10.023438 4.496093 10.023438 10.019531v24.148438c-13.113282-9.851563-24.925782-21.347657-35.136719-34.167969zm150.246093 72.59375c-34.582031 0-67.054687-9.191407-95.109374-25.257813v-37.316406c0-16.554688-13.46875-30.019531-30.023438-30.019531h-39.085938c-17.628906-29.015625-27.789062-63.050781-27.789062-99.410157 0-17.457031 2.355469-34.367187 6.742188-50.453124h68.007812c18.355469 0 33.289062-14.933594 33.289062-33.289063v-.957031c0-7.324219 5.960938-13.285156 13.285157-13.285156 18.355469 0 33.289062-14.933594 33.289062-33.289063v-5.09375c0-18.355469-14.933593-33.289063-33.289062-33.289063h-19.140625c26.816406-14.257812 57.390625-22.351562 89.824218-22.351562 33.894532 0 65.757813 8.839844 93.425782 24.316406h-35.679688c-31.523437 0-57.171875 25.648438-57.171875 57.171875 0 4.148438-3.375 7.519531-7.519531 7.519531-22.605469 0-41 18.394532-41 41 0 10.339844 3.316406 19.914063 8.921875 27.738282h-35.613281c-28.21875 0-51.175782 22.957031-51.175782 51.175781v13.222656c0 26.339844 21.429688 47.769531 47.769532 47.769531 10.460937 0 18.976562 8.511719 18.976562 18.976563v51.855469c0 12.648437 7.625 23.761718 19.433594 28.304687 3.597656 1.386719 7.316406 2.058594 10.988281 2.058594 7.140625 0 14.101563-2.554687 19.652344-7.34375 5.019531 7.257813 10.753906 13.984375 17.105469 20.074219-2.703125.113281-5.410156.171875-8.113282.171875zm-11.996093-94c0-60.65625 49.347656-110.003907 110.003906-110.003907 60.652344 0 110 49.347657 110 110.003907 0 60.652343-49.347656 110-110 110-60.65625 0-110.003906-49.34375-110.003906-110zm287.929687 177.929687c-5.421875 5.425782-14.246094 5.421875-19.667968 0l-76.742188-76.742187c7.234375-5.835938 13.832031-12.433594 19.671875-19.667969l76.738281 76.738281c5.425782 5.425781 5.425782 14.25 0 19.671875zm0 0"/><path d="m310.015625 265.011719c-5.523437 0-10.003906 4.480469-10.003906 10 0 5.523437 4.480469 10 10.003906 10 13.78125 0 24.996094 11.214843 24.996094 25 0 5.519531 4.476562 10 10 10 5.523437 0 10-4.480469 10-10 0-24.8125-20.1875-45-44.996094-45zm0 0"/></svg>